<svg width="493" height="193" viewBox="0 0 493 193" fill="none" xmlns="http://www.w3.org/2000/svg">
<g clip-path="url(#clip0_252_756)">
<path d="M125.62 76.3199L171.07 70.7L125.62 9.46994C125.62 9.46994 105.7 -14.5301 80.68 14.0599L0 132.06L492.77 28.8299L83.77 93.6799C83.77 93.6799 71 95.7299 77.13 85.5099C83.26 75.2899 104.19 49.7699 104.19 49.7699C104.19 49.7699 108.28 45.1699 112.36 52.8299C116.44 60.4899 125.62 76.3199 125.62 76.3199Z" fill="#0A642B"/>
<path d="M147.06 107.47L192.51 98.2798L216 131.98H166.98L147.06 107.47Z" fill="#0A642B"/>
<path d="M226.21 92.1499L269.11 81.9399V133.51H226.21V92.1499Z" fill="#0A642B"/>
<path d="M162.9 3.81006L187.9 33.9401H228.24L226.19 65.9401L266.02 59.4201V34.9001H303.81C303.81 34.9001 322.19 10.6101 342.11 3.81006H162.9Z" fill="#0A642B"/>
<path d="M316.6 46.7001C316.6 46.7001 359.49 41.0901 363.07 42.6201C366.65 44.1501 364.07 33.8201 389.07 34.9001C414.07 35.9801 464.64 27.3 464.64 27.3L482.52 3.81006H381.47C381.47 3.81006 352.36 7.38008 342.15 18.1101C331.94 28.8401 316.6 46.7001 316.6 46.7001Z" fill="#0A642B"/>
<path d="M312.47 73.7702L351.28 65.9902C351.28 65.9902 349.28 100.32 386.52 103.38C423.76 106.44 482.52 103.38 482.52 103.38L457.52 133.51H384.52C384.52 133.51 372.27 141.17 342.14 121.77C342.13 121.77 315.07 106.47 312.47 73.7702Z" fill="#0A642B"/>
</g>
<path d="M23.1223 177.28H15.2623L14.0023 181H8.63234L16.2523 159.94H22.1923L29.8123 181H24.3823L23.1223 177.28ZM21.8023 173.32L19.1923 165.61L16.6123 173.32H21.8023ZM43.2615 167.05C43.8615 166.13 44.6115 165.41 45.5115 164.89C46.4115 164.35 47.4115 164.08 48.5115 164.08V169.51H47.1015C45.8215 169.51 44.8615 169.79 44.2215 170.35C43.5815 170.89 43.2615 171.85 43.2615 173.23V181H38.1315V164.26H43.2615V167.05ZM55.9435 172.6C55.9435 170.88 56.2635 169.37 56.9035 168.07C57.5635 166.77 58.4535 165.77 59.5735 165.07C60.6935 164.37 61.9435 164.02 63.3235 164.02C64.5035 164.02 65.5335 164.26 66.4135 164.74C67.3135 165.22 68.0035 165.85 68.4835 166.63V164.26H73.6135V181H68.4835V178.63C67.9835 179.41 67.2835 180.04 66.3835 180.52C65.5035 181 64.4735 181.24 63.2935 181.24C61.9335 181.24 60.6935 180.89 59.5735 180.19C58.4535 179.47 57.5635 178.46 56.9035 177.16C56.2635 175.84 55.9435 174.32 55.9435 172.6ZM68.4835 172.63C68.4835 171.35 68.1235 170.34 67.4035 169.6C66.7035 168.86 65.8435 168.49 64.8235 168.49C63.8035 168.49 62.9335 168.86 62.2135 169.6C61.5135 170.32 61.1635 171.32 61.1635 172.6C61.1635 173.88 61.5135 174.9 62.2135 175.66C62.9335 176.4 63.8035 176.77 64.8235 176.77C65.8435 176.77 66.7035 176.4 67.4035 175.66C68.1235 174.92 68.4835 173.91 68.4835 172.63ZM88.4548 166.63C88.9348 165.85 89.6248 165.22 90.5248 164.74C91.4248 164.26 92.4548 164.02 93.6148 164.02C94.9948 164.02 96.2448 164.37 97.3648 165.07C98.4848 165.77 99.3648 166.77 100.005 168.07C100.665 169.37 100.995 170.88 100.995 172.6C100.995 174.32 100.665 175.84 100.005 177.16C99.3648 178.46 98.4848 179.47 97.3648 180.19C96.2448 180.89 94.9948 181.24 93.6148 181.24C92.4348 181.24 91.4048 181.01 90.5248 180.55C89.6448 180.07 88.9548 179.44 88.4548 178.66V181H83.3248V158.8H88.4548V166.63ZM95.7748 172.6C95.7748 171.32 95.4148 170.32 94.6948 169.6C93.9948 168.86 93.1248 168.49 92.0848 168.49C91.0648 168.49 90.1948 168.86 89.4748 169.6C88.7748 170.34 88.4248 171.35 88.4248 172.63C88.4248 173.91 88.7748 174.92 89.4748 175.66C90.1948 176.4 91.0648 176.77 92.0848 176.77C93.1048 176.77 93.9748 176.4 94.6948 175.66C95.4148 174.9 95.7748 173.88 95.7748 172.6ZM137.194 159.94V164.05H131.614V181H126.484V164.05H120.904V159.94H137.194ZM150.898 167.05C151.498 166.13 152.248 165.41 153.148 164.89C154.048 164.35 155.048 164.08 156.148 164.08V169.51H154.738C153.458 169.51 152.498 169.79 151.858 170.35C151.218 170.89 150.898 171.85 150.898 173.23V181H145.768V164.26H150.898V167.05ZM163.58 172.6C163.58 170.88 163.9 169.37 164.54 168.07C165.2 166.77 166.09 165.77 167.21 165.07C168.33 164.37 169.58 164.02 170.96 164.02C172.14 164.02 173.17 164.26 174.05 164.74C174.95 165.22 175.64 165.85 176.12 166.63V164.26H181.25V181H176.12V178.63C175.62 179.41 174.92 180.04 174.02 180.52C173.14 181 172.11 181.24 170.93 181.24C169.57 181.24 168.33 180.89 167.21 180.19C166.09 179.47 165.2 178.46 164.54 177.16C163.9 175.84 163.58 174.32 163.58 172.6ZM176.12 172.63C176.12 171.35 175.76 170.34 175.04 169.6C174.34 168.86 173.48 168.49 172.46 168.49C171.44 168.49 170.57 168.86 169.85 169.6C169.15 170.32 168.8 171.32 168.8 172.6C168.8 173.88 169.15 174.9 169.85 175.66C170.57 176.4 171.44 176.77 172.46 176.77C173.48 176.77 174.34 176.4 175.04 175.66C175.76 174.92 176.12 173.91 176.12 172.63ZM189.942 172.6C189.942 170.88 190.262 169.37 190.902 168.07C191.562 166.77 192.452 165.77 193.572 165.07C194.692 164.37 195.942 164.02 197.322 164.02C198.422 164.02 199.422 164.25 200.322 164.71C201.242 165.17 201.962 165.79 202.482 166.57V158.8H207.612V181H202.482V178.6C202.002 179.4 201.312 180.04 200.412 180.52C199.532 181 198.502 181.24 197.322 181.24C195.942 181.24 194.692 180.89 193.572 180.19C192.452 179.47 191.562 178.46 190.902 177.16C190.262 175.84 189.942 174.32 189.942 172.6ZM202.482 172.63C202.482 171.35 202.122 170.34 201.402 169.6C200.702 168.86 199.842 168.49 198.822 168.49C197.802 168.49 196.932 168.86 196.212 169.6C195.512 170.32 195.162 171.32 195.162 172.6C195.162 173.88 195.512 174.9 196.212 175.66C196.932 176.4 197.802 176.77 198.822 176.77C199.842 176.77 200.702 176.4 201.402 175.66C202.122 174.92 202.482 173.91 202.482 172.63ZM219.903 162.52C219.003 162.52 218.263 162.26 217.683 161.74C217.123 161.2 216.843 160.54 216.843 159.76C216.843 158.96 217.123 158.3 217.683 157.78C218.263 157.24 219.003 156.97 219.903 156.97C220.783 156.97 221.503 157.24 222.063 157.78C222.643 158.3 222.933 158.96 222.933 159.76C222.933 160.54 222.643 161.2 222.063 161.74C221.503 162.26 220.783 162.52 219.903 162.52ZM222.453 164.26V181H217.323V164.26H222.453ZM242.371 164.08C244.331 164.08 245.891 164.72 247.051 166C248.231 167.26 248.821 169 248.821 171.22V181H243.721V171.91C243.721 170.79 243.431 169.92 242.851 169.3C242.271 168.68 241.491 168.37 240.511 168.37C239.531 168.37 238.751 168.68 238.171 169.3C237.591 169.92 237.301 170.79 237.301 171.91V181H232.171V164.26H237.301V166.48C237.821 165.74 238.521 165.16 239.401 164.74C240.281 164.3 241.271 164.08 242.371 164.08ZM264.745 164.02C265.925 164.02 266.955 164.26 267.835 164.74C268.735 165.22 269.425 165.85 269.905 166.63V164.26H275.035V180.97C275.035 182.51 274.725 183.9 274.105 185.14C273.505 186.4 272.575 187.4 271.315 188.14C270.075 188.88 268.525 189.25 266.665 189.25C264.185 189.25 262.175 188.66 260.635 187.48C259.095 186.32 258.215 184.74 257.995 182.74H263.065C263.225 183.38 263.605 183.88 264.205 184.24C264.805 184.62 265.545 184.81 266.425 184.81C267.485 184.81 268.325 184.5 268.945 183.88C269.585 183.28 269.905 182.31 269.905 180.97V178.6C269.405 179.38 268.715 180.02 267.835 180.52C266.955 181 265.925 181.24 264.745 181.24C263.365 181.24 262.115 180.89 260.995 180.19C259.875 179.47 258.985 178.46 258.325 177.16C257.685 175.84 257.365 174.32 257.365 172.6C257.365 170.88 257.685 169.37 258.325 168.07C258.985 166.77 259.875 165.77 260.995 165.07C262.115 164.37 263.365 164.02 264.745 164.02ZM269.905 172.63C269.905 171.35 269.545 170.34 268.825 169.6C268.125 168.86 267.265 168.49 266.245 168.49C265.225 168.49 264.355 168.86 263.635 169.6C262.935 170.32 262.585 171.32 262.585 172.6C262.585 173.88 262.935 174.9 263.635 175.66C264.355 176.4 265.225 176.77 266.245 176.77C267.265 176.77 268.125 176.4 268.825 175.66C269.545 174.92 269.905 173.91 269.905 172.63ZM296.234 170.44C296.234 168.36 296.684 166.51 297.584 164.89C298.484 163.25 299.734 161.98 301.334 161.08C302.954 160.16 304.784 159.7 306.824 159.7C309.324 159.7 311.464 160.36 313.244 161.68C315.024 163 316.214 164.8 316.814 167.08H311.174C310.754 166.2 310.154 165.53 309.374 165.07C308.614 164.61 307.744 164.38 306.764 164.38C305.184 164.38 303.904 164.93 302.924 166.03C301.944 167.13 301.454 168.6 301.454 170.44C301.454 172.28 301.944 173.75 302.924 174.85C303.904 175.95 305.184 176.5 306.764 176.5C307.744 176.5 308.614 176.27 309.374 175.81C310.154 175.35 310.754 174.68 311.174 173.8H316.814C316.214 176.08 315.024 177.88 313.244 179.2C311.464 180.5 309.324 181.15 306.824 181.15C304.784 181.15 302.954 180.7 301.334 179.8C299.734 178.88 298.484 177.61 297.584 175.99C296.684 174.37 296.234 172.52 296.234 170.44ZM333.576 181.24C331.936 181.24 330.456 180.89 329.136 180.19C327.836 179.49 326.806 178.49 326.046 177.19C325.306 175.89 324.936 174.37 324.936 172.63C324.936 170.91 325.316 169.4 326.076 168.1C326.836 166.78 327.876 165.77 329.196 165.07C330.516 164.37 331.996 164.02 333.636 164.02C335.276 164.02 336.756 164.37 338.076 165.07C339.396 165.77 340.436 166.78 341.196 168.1C341.956 169.4 342.336 170.91 342.336 172.63C342.336 174.35 341.946 175.87 341.166 177.19C340.406 178.49 339.356 179.49 338.016 180.19C336.696 180.89 335.216 181.24 333.576 181.24ZM333.576 176.8C334.556 176.8 335.386 176.44 336.066 175.72C336.766 175 337.116 173.97 337.116 172.63C337.116 171.29 336.776 170.26 336.096 169.54C335.436 168.82 334.616 168.46 333.636 168.46C332.636 168.46 331.806 168.82 331.146 169.54C330.486 170.24 330.156 171.27 330.156 172.63C330.156 173.97 330.476 175 331.116 175.72C331.776 176.44 332.596 176.8 333.576 176.8ZM372.417 164.08C374.497 164.08 376.147 164.71 377.367 165.97C378.607 167.23 379.227 168.98 379.227 171.22V181H374.127V171.91C374.127 170.83 373.837 170 373.257 169.42C372.697 168.82 371.917 168.52 370.917 168.52C369.917 168.52 369.127 168.82 368.547 169.42C367.987 170 367.707 170.83 367.707 171.91V181H362.607V171.91C362.607 170.83 362.317 170 361.737 169.42C361.177 168.82 360.397 168.52 359.397 168.52C358.397 168.52 357.607 168.82 357.027 169.42C356.467 170 356.187 170.83 356.187 171.91V181H351.057V164.26H356.187V166.36C356.707 165.66 357.387 165.11 358.227 164.71C359.067 164.29 360.017 164.08 361.077 164.08C362.337 164.08 363.457 164.35 364.437 164.89C365.437 165.43 366.217 166.2 366.777 167.2C367.357 166.28 368.147 165.53 369.147 164.95C370.147 164.37 371.237 164.08 372.417 164.08ZM393.945 166.63C394.445 165.85 395.135 165.22 396.015 164.74C396.895 164.26 397.925 164.02 399.105 164.02C400.485 164.02 401.735 164.37 402.855 165.07C403.975 165.77 404.855 166.77 405.495 168.07C406.155 169.37 406.485 170.88 406.485 172.6C406.485 174.32 406.155 175.84 405.495 177.16C404.855 178.46 403.975 179.47 402.855 180.19C401.735 180.89 400.485 181.24 399.105 181.24C397.945 181.24 396.915 181 396.015 180.52C395.135 180.04 394.445 179.42 393.945 178.66V188.98H388.815V164.26H393.945V166.63ZM401.265 172.6C401.265 171.32 400.905 170.32 400.185 169.6C399.485 168.86 398.615 168.49 397.575 168.49C396.555 168.49 395.685 168.86 394.965 169.6C394.265 170.34 393.915 171.35 393.915 172.63C393.915 173.91 394.265 174.92 394.965 175.66C395.685 176.4 396.555 176.77 397.575 176.77C398.595 176.77 399.465 176.4 400.185 175.66C400.905 174.9 401.265 173.88 401.265 172.6ZM414.156 172.6C414.156 170.88 414.476 169.37 415.116 168.07C415.776 166.77 416.666 165.77 417.786 165.07C418.906 164.37 420.156 164.02 421.536 164.02C422.716 164.02 423.746 164.26 424.626 164.74C425.526 165.22 426.216 165.85 426.696 166.63V164.26H431.826V181H426.696V178.63C426.196 179.41 425.496 180.04 424.596 180.52C423.716 181 422.686 181.24 421.506 181.24C420.146 181.24 418.906 180.89 417.786 180.19C416.666 179.47 415.776 178.46 415.116 177.16C414.476 175.84 414.156 174.32 414.156 172.6ZM426.696 172.63C426.696 171.35 426.336 170.34 425.616 169.6C424.916 168.86 424.056 168.49 423.036 168.49C422.016 168.49 421.146 168.86 420.426 169.6C419.726 170.32 419.376 171.32 419.376 172.6C419.376 173.88 419.726 174.9 420.426 175.66C421.146 176.4 422.016 176.77 423.036 176.77C424.056 176.77 424.916 176.4 425.616 175.66C426.336 174.92 426.696 173.91 426.696 172.63ZM451.738 164.08C453.698 164.08 455.258 164.72 456.418 166C457.598 167.26 458.188 169 458.188 171.22V181H453.088V171.91C453.088 170.79 452.798 169.92 452.218 169.3C451.638 168.68 450.858 168.37 449.878 168.37C448.898 168.37 448.118 168.68 447.538 169.3C446.958 169.92 446.668 170.79 446.668 171.91V181H441.538V164.26H446.668V166.48C447.188 165.74 447.888 165.16 448.768 164.74C449.648 164.3 450.638 164.08 451.738 164.08ZM484.853 164.26L474.353 188.95H468.833L472.673 180.43L465.863 164.26H471.593L475.463 174.73L479.303 164.26H484.853Z" fill="#0A642B"/>
<defs>
<clipPath id="clip0_252_756">
<rect width="492.77" height="135" fill="white"/>
</clipPath>
</defs>
</svg>
